<svg width="32" height="32" xmlns="http://www.w3.org/2000/svg">

 <g>
  <title>background</title>
  <rect fill="none" id="canvas_background" height="402" width="582" y="-1" x="-1"/>
 </g>
 <g>
  <title>Layer 1</title>
  <polyline stroke-miterlimit="10" stroke-linejoin="round" stroke-linecap="round" stroke-width="2" stroke="#000000" fill="none" id="svg_1" points="3,10 16,18 29,10 " class="st0"/>
  <path stroke-miterlimit="10" stroke-linejoin="round" stroke-linecap="round" stroke-width="2" stroke="#000000" fill="none" id="svg_2" d="m7,12.5l0,-9.5c0,-1.1 0.9,-2 2,-2l14,0c1.1,0 2,0.9 2,2l0,9.5" class="st0"/>
  <path stroke-miterlimit="10" stroke-linejoin="round" stroke-linecap="round" stroke-width="2" stroke="#000000" fill="none" id="svg_3" d="m25,5c2.2,0 4,1.8 4,4l0,14c0,2.2 -1.8,4 -4,4l-18,0c-2.2,0 -4,-1.8 -4,-4l0,-14c0,-2.2 1.8,-4 4,-4" class="st0"/>
  <line stroke-miterlimit="10" stroke-linejoin="round" stroke-linecap="round" stroke-width="2" stroke="#000000" fill="none" id="svg_4" y2="5" y1="5" x2="18" x1="11" class="st0"/>
  <line stroke-miterlimit="10" stroke-linejoin="round" stroke-linecap="round" stroke-width="2" stroke="#000000" fill="none" id="svg_5" y2="9" y1="9" x2="14" x1="11" class="st0"/>
 </g>
</svg>