<svg xmlns="http://www.w3.org/2000/svg" viewBox="0 0 52.81 56.39"><defs><style>.cls-1{fill:#3866b8;}.cls-2{fill:#fff;}</style></defs><title>Asset 4</title><g id="Layer_2" data-name="Layer 2"><g id="Layer_1-2" data-name="Layer 1"><rect class="cls-1" width="52.81" height="56.39"/><path class="cls-2" d="M34.63,11.75H30.37c-4.8,0-7.9,3.18-7.9,8.1v3.73H18.18a.67.67,0,0,0-.67.68v5.41a.67.67,0,0,0,.67.67h4.29V44a.67.67,0,0,0,.67.67h5.6a.67.67,0,0,0,.67-.67V30.33h5a.67.67,0,0,0,.67-.67V24.25a.71.71,0,0,0-.19-.48.72.72,0,0,0-.48-.2h-5V20.41c0-1.53.36-2.3,2.34-2.3h2.88a.67.67,0,0,0,.67-.67v-5A.67.67,0,0,0,34.63,11.75Z"/></g></g></svg>