<svg xmlns="http://www.w3.org/2000/svg" viewBox="0 0 52.81 56.39"><defs><style>.cls-1{fill:#595758;}.cls-2{fill:#fff;}</style></defs><title>Asset 2</title><g id="Layer_2" data-name="Layer 2"><g id="Layer_1-2" data-name="Layer 1"><rect class="cls-1" width="52.81" height="56.39"/><path class="cls-2" d="M32.11,15.47H20.7a7,7,0,0,0-7,7V33.9a7,7,0,0,0,7,7H32.11a7,7,0,0,0,7-7V22.49A7,7,0,0,0,32.11,15.47ZM36.87,33.9a4.77,4.77,0,0,1-4.76,4.76H20.7a4.77,4.77,0,0,1-4.76-4.76V22.49a4.77,4.77,0,0,1,4.76-4.76H32.11a4.77,4.77,0,0,1,4.76,4.76V33.9Z"/><path class="cls-2" d="M26.41,21.64A6.56,6.56,0,1,0,33,28.2,6.56,6.56,0,0,0,26.41,21.64Zm0,10.85A4.3,4.3,0,1,1,30.7,28.2,4.29,4.29,0,0,1,26.41,32.49Z"/><path class="cls-2" d="M33.24,19.73a1.66,1.66,0,0,0,0,3.31,1.68,1.68,0,0,0,1.17-.49,1.67,1.67,0,0,0,0-2.34A1.67,1.67,0,0,0,33.24,19.73Z"/></g></g></svg>