<?xml version="1.0" encoding="utf-8"?>
<!-- Generator: Adobe Illustrator 23.0.3, SVG Export Plug-In . SVG Version: 6.00 Build 0)  -->
<svg version="1.1" id="Layer_1" xmlns="http://www.w3.org/2000/svg" xmlns:xlink="http://www.w3.org/1999/xlink" x="0px" y="0px"
	 viewBox="0 0 22 23" style="enable-background:new 0 0 22 23;" xml:space="preserve">
<g>
	<g>
		<path d="M21.3,15.6c0.5-0.6,0.7-1.2,0.7-1.9c0-0.7-0.3-1.3-0.6-1.7c0.3-0.8,0.4-2-0.6-3c-0.8-0.7-2-1-3.8-0.9
			c-1.2,0.1-2.3,0.3-2.3,0.3h0c-0.2,0-0.5,0.1-0.7,0.2c0-0.3,0-1.1,0.6-2.8c0.7-2,0.6-3.6-0.1-4.7C13.6,0.1,12.3,0,12,0
			c-0.4,0-0.7,0.1-0.9,0.4c-0.5,0.6-0.5,1.8-0.4,2.3c-0.6,1.7-2.4,5.9-3.9,7c0,0-0.1,0-0.1,0.1c-0.4,0.5-0.7,1-0.9,1.4
			C5.5,11.1,5.2,11,4.9,11H2c-1.1,0-2,0.9-2,2v7.8c0,1.1,0.9,2,2,2h2.9c0.4,0,0.8-0.1,1.1-0.4l1.1,0.1c0.2,0,3.2,0.4,6.3,0.4
			C14,23,14.5,23,15,23c0.8,0,1.6-0.1,2.2-0.2c1.4-0.3,2.4-0.9,2.9-1.9c0.4-0.7,0.4-1.4,0.3-1.8c0.9-0.9,1.1-1.8,1.1-2.5
			C21.5,16.2,21.4,15.9,21.3,15.6z M2,21.5c-0.4,0-0.7-0.3-0.7-0.7V13c0-0.4,0.3-0.7,0.7-0.7h2.9c0.4,0,0.7,0.3,0.7,0.7v7.8
			c0,0.4-0.3,0.7-0.7,0.7L2,21.5L2,21.5z M20.1,15.1c-0.2,0.2-0.2,0.5-0.1,0.8c0,0,0.2,0.3,0.2,0.8c0,0.6-0.3,1.2-0.9,1.7
			c-0.2,0.2-0.3,0.5-0.2,0.7c0,0,0.2,0.6-0.1,1.2c-0.3,0.6-1,1-2.1,1.2c-0.9,0.2-2,0.2-3.5,0.1c0,0,0,0-0.1,0
			c-3,0.1-6.1-0.3-6.2-0.3h0l-0.5-0.1c0-0.1,0-0.3,0-0.4V13c0-0.2,0-0.4-0.1-0.6c0.1-0.3,0.3-1,0.9-1.7C9.7,9,11.8,3.3,11.9,3
			c0-0.1,0-0.2,0-0.3c-0.1-0.5-0.1-1.2,0.1-1.4c0.3,0,0.9,0.1,1.3,0.6c0.5,0.7,0.5,1.9-0.1,3.5c-0.8,2.4-0.9,3.7-0.2,4.3
			c0.3,0.3,0.7,0.3,1,0.2c0.3-0.1,0.6-0.1,0.8-0.2c0,0,0,0,0.1,0c1.5-0.3,4.1-0.5,5,0.3c0.8,0.7,0.2,1.7,0.2,1.8
			c-0.2,0.3-0.1,0.6,0.1,0.8c0,0,0.5,0.5,0.5,1.1C20.7,14.2,20.5,14.6,20.1,15.1z"/>
	</g>
</g>
</svg>
