<?xml version="1.0" encoding="utf-8"?>
<!-- Generator: Adobe Illustrator 23.0.3, SVG Export Plug-In . SVG Version: 6.00 Build 0)  -->
<svg version="1.1" id="Layer_1" xmlns="http://www.w3.org/2000/svg" xmlns:xlink="http://www.w3.org/1999/xlink" x="0px" y="0px"
	 viewBox="0 0 60 19.5" style="enable-background:new 0 0 60 19.5;" xml:space="preserve">
<g>
	<g>
		<path d="M8.1,0.1l-2,0c-2.3,0-3.8,1.8-3.8,4.5v2.1h-2C0.1,6.7,0,6.9,0,7.1v3c0,0.2,0.1,0.4,0.3,0.4h2v7.7c0,0.2,0.1,0.4,0.3,0.4
			h2.7c0.2,0,0.3-0.2,0.3-0.4v-7.7H8c0.2,0,0.3-0.2,0.3-0.4l0-3c0-0.1,0-0.2-0.1-0.3C8.2,6.8,8.1,6.7,8,6.7H5.7V5
			c0-0.9,0.2-1.3,1.1-1.3h1.4c0.2,0,0.3-0.2,0.3-0.4V0.5C8.5,0.3,8.3,0.1,8.1,0.1z"/>
	</g>
</g>
<g>
	<path d="M53.2,0h-8.8c-3,0-5.4,2.4-5.4,5.2v8.5c0,2.9,2.4,5.2,5.4,5.2h8.8c3,0,5.4-2.4,5.4-5.2V5.2C58.6,2.4,56.1,0,53.2,0z
		 M56.8,13.8c0,2-1.6,3.6-3.7,3.6h-8.8c-2,0-3.7-1.6-3.7-3.6V5.2c0-2,1.6-3.6,3.7-3.6h8.8c2,0,3.7,1.6,3.7,3.6V13.8L56.8,13.8z"/>
	<path d="M48.8,4.6c-2.8,0-5,2.2-5,4.9c0,2.7,2.3,4.9,5,4.9c2.8,0,5-2.2,5-4.9C53.8,6.8,51.6,4.6,48.8,4.6z M48.8,12.7
		c-1.8,0-3.3-1.4-3.3-3.2c0-1.8,1.5-3.2,3.3-3.2c1.8,0,3.3,1.4,3.3,3.2C52.1,11.3,50.6,12.7,48.8,12.7z"/>
	<path d="M54,3.2c-0.3,0-0.7,0.1-0.9,0.4c-0.2,0.2-0.4,0.5-0.4,0.9c0,0.3,0.1,0.6,0.4,0.9c0.2,0.2,0.6,0.4,0.9,0.4
		c0.3,0,0.7-0.1,0.9-0.4c0.2-0.2,0.4-0.5,0.4-0.9c0-0.3-0.1-0.6-0.4-0.9C54.7,3.3,54.4,3.2,54,3.2z"/>
</g>
<path d="M33.7,2.2c-0.4,0.2-0.9,0.4-1.3,0.5c0.5-0.6,0.9-1.3,1.1-2.1l0,0c0.1-0.2-0.1-0.4-0.3-0.3l0,0c-0.6,0.4-1.3,0.8-2,1
	c0,0-0.1,0-0.1,0c-0.1,0-0.3-0.1-0.4-0.2C29.8,0.4,28.9,0,27.8,0c-0.4,0-0.9,0.1-1.3,0.2c-1.4,0.5-2.4,1.8-2.7,3.4
	c-0.1,0.6-0.2,1.2-0.1,1.8c0,0.1,0,0.1,0,0.1c0,0-0.1,0.1-0.1,0.1c0,0,0,0,0,0c-3-0.3-5.6-2-7.5-4.7l0,0c-0.1-0.1-0.3-0.1-0.4,0l0,0
	c-0.4,0.7-0.6,1.6-0.6,2.5c0,1.3,0.5,2.6,1.2,3.5c-0.3-0.1-0.7-0.2-1-0.4l0,0c-0.1-0.1-0.3,0-0.3,0.2l0,0c0,2,1,3.7,2.4,4.5
	c0,0-0.1,0-0.1,0c-0.2,0-0.5,0-0.7-0.1l0,0c-0.2,0-0.3,0.1-0.2,0.3l0,0c0.5,1.8,1.8,3.1,3.3,3.4c-1.3,1-2.8,1.5-4.3,1.5H15
	c-0.1,0-0.3,0.1-0.3,0.3c0,0.2,0,0.3,0.2,0.4c1.7,1.2,3.7,1.8,5.8,1.8c1.8,0,3.4-0.4,4.9-1.2c1.4-0.8,2.6-1.8,3.6-3.2
	c0.9-1.3,1.7-2.7,2.2-4.4C31.8,8.7,32,7,32,5.5V5.4c0-0.3,0.1-0.5,0.3-0.7c0.6-0.6,1.2-1.3,1.7-2.1l0,0C34.1,2.4,33.9,2.1,33.7,2.2
	L33.7,2.2z"/>
</svg>
