<svg xmlns="http://www.w3.org/2000/svg" viewBox="0 0 52.81 56.39"><defs><style>.cls-1{fill:#00a1f8;}.cls-2{fill:#fff;}</style></defs><title>Asset 3</title><g id="Layer_2" data-name="Layer 2"><g id="Layer_1-2" data-name="Layer 1"><rect class="cls-1" width="52.81" height="56.39"/><path class="cls-2" d="M40.66,18.8a11,11,0,0,1-2,.68,6.34,6.34,0,0,0,1.67-2.66h0a.33.33,0,0,0-.48-.39h0a11.76,11.76,0,0,1-3.11,1.29l-.19,0a.82.82,0,0,1-.55-.21A6.35,6.35,0,0,0,31.77,16a6.68,6.68,0,0,0-2,.31,6.15,6.15,0,0,0-4.14,4.43A6.63,6.63,0,0,0,25.47,23a.23.23,0,0,1-.06.18.3.3,0,0,1-.18.08h0a16.72,16.72,0,0,1-11.44-6.12h0a.33.33,0,0,0-.54,0h0a6.36,6.36,0,0,0,1,7.72,5.81,5.81,0,0,1-1.45-.56h0a.33.33,0,0,0-.49.29h0A6.34,6.34,0,0,0,16,30.51h-.14a5.61,5.61,0,0,1-1.07-.1h0a.33.33,0,0,0-.38.43h0a6.38,6.38,0,0,0,5,4.33,11.77,11.77,0,0,1-6.56,2h-.74a.49.49,0,0,0-.47.36.5.5,0,0,0,.24.56,17.45,17.45,0,0,0,8.75,2.36,17.73,17.73,0,0,0,7.49-1.58,16.6,16.6,0,0,0,5.47-4.11A17.88,17.88,0,0,0,37,29.14,17.65,17.65,0,0,0,38.14,23V22.9a1.06,1.06,0,0,1,.41-.84,13,13,0,0,0,2.52-2.77h0a.33.33,0,0,0-.41-.49Z"/></g></g></svg>